<?xml version="1.0" encoding="utf-8"?>
<!-- Generator: Adobe Illustrator 27.5.0, SVG Export Plug-In . SVG Version: 6.00 Build 0)  -->
<svg version="1.1" xmlns="http://www.w3.org/2000/svg" xmlns:xlink="http://www.w3.org/1999/xlink" x="0px" y="0px"
	 viewBox="0 0 2200 1466" style="enable-background:new 0 0 2200 1466;" xml:space="preserve">
<g id="background">
	<rect y="0" style="fill:transparent" width="2200" height="1466"/>
</g>
<g id="Objects">
	<path style="fill:#ffffff;" d="M1983.702,852.354c-38.265-32.043-76.529-64.086-114.794-96.129
		c-5.348-4.478-10.695-8.956-16.043-13.435c-3.938-3.298-9.707-0.208-8.602,5.007c5.256,24.799,10.511,49.599,15.767,74.398
		c-86.713-19.526-179.064-17.499-266.483-4.762c-49.933,7.275-99.432,18.856-146.848,36.237
		c-49.667,18.206-95.583,44.62-143.845,66.009c-48.333,21.421-101.934,38.134-155.005,26.077
		c-44.063-10.011-80.321-38.383-108.008-73.231c-9.822-12.363-18.654-25.488-26.692-39.113
		c36.91-5.627,73.372-15.053,108.588-26.878c45.687-15.341,90.066-36.057,128.924-64.803
		c38.167-28.235,70.453-63.927,92.758-105.974c21.922-41.325,36.774-93.969,12.661-137.725
		c-20.759-37.669-63.182-50.465-103.721-41.439c-24.635,5.485-44.79,18.628-63.128,35.514
		c-17.776,16.369-33.635,34.672-46.093,55.43c-0.866,1.442-1.712,2.895-2.545,4.355c-2.992-28.371-23.408-54.687-49.325-68.024
		c-41.939-21.582-89.6-3.052-118.763,30.876c-35.041,40.766-42.089,94.461-33.988,146.164c4.756,30.361,14.168,59.83,24.715,88.62
		c8.309,22.68,17.743,44.999,28.766,66.5c1.587,3.097,3.215,6.18,4.876,9.251c-11.332,1.4-22.694,2.437-34.068,3.019
		c-62.512,3.195-124.879-4.253-187.096-9.184c-58.216-4.613-116.249-5.733-174.33,1.241c-52.47,6.3-104.26,18.073-154.298,35.004
		c-21.205-13.814-42.09-28.424-63.816-41.378c-2.627-1.566-4.669-1.344-7.667-0.321c-8.005,2.732-15.948,5.646-23.825,8.728
		c-14.284,5.589-28.367,11.704-42.211,18.307c-22.093,10.538-43.614,22.316-64.353,35.321c-9.476,5.942-18.951,12.046-27.868,18.815
		c-2.713,2.059-3.922,7.106,0,8.888c21.992,9.991,43.984,19.982,65.975,29.972c-8.681,5.545-17.243,11.273-25.698,17.16
		c-5.398,3.759-0.259,12.685,5.195,8.888c8.518-5.931,17.162-11.67,25.914-17.234c-0.548,21.565-1.095,43.13-1.643,64.695
		c-0.08,3.142,3.384,6.103,6.515,4.963c27.933-10.179,55.068-23.229,81.307-37.117c12.11-6.41,24.049-13.143,35.775-20.23
		c6.267-3.788,12.474-7.677,18.608-11.677c6.183-4.032,13.113-7.857,18.69-12.694c3.388-2.939,2.59-7.321,2.65-11.46
		c0.098-6.842,0.197-13.683,0.295-20.525c0.161-11.227,0.323-22.453,0.484-33.679c43.804-14.806,88.976-25.615,134.851-32.148
		c60.392-8.6,120.973-8.421,181.692-3.824c64.815,4.907,129.741,13.113,194.855,9.785c13.173-0.673,26.335-1.913,39.451-3.638
		c19.607,34.167,44.166,65.91,75.897,89.485c40.077,29.776,89.174,40.58,138.34,33.254c56.058-8.352,107.298-36.102,157.523-60.784
		c49.27-24.213,99.468-43.762,152.98-56.405c99.306-23.462,206.651-30.42,307.53-12.892c7.742,1.345,15.448,2.873,23.113,4.591
		c-15.79,19.694-31.579,39.387-47.369,59.081c-3.125,3.898-0.316,9.849,5.007,8.602c48.593-11.386,97.186-22.772,145.779-34.158
		c6.791-1.591,13.583-3.182,20.374-4.774c2.025-0.474,3.144-1.78,3.527-3.3C1985.772,855.979,1985.614,853.956,1983.702,852.354z
		 M323.524,845.484c18.075-8.291,36.559-15.645,55.375-22.074c18.623,12.078,37.247,24.157,55.87,36.235
		c-49.163,17.573-96.525,40.171-141.04,67.532c-21.244-9.651-42.489-19.303-63.733-28.954
		C258.955,877.367,291.288,860.27,323.524,845.484z M301.484,998.104c-1.303,0.526-2.61,1.045-3.917,1.564
		c0.539-21.232,1.078-42.465,1.618-63.697c44.792-27.442,92.417-50.09,141.878-67.609c-0.263,18.313-0.527,36.626-0.79,54.939
		C397.213,953.385,350.177,978.442,301.484,998.104z M975.151,752.173c-19.88-52.912-38.443-112.423-25.645-169.243
		c9.761-43.334,41.325-86.292,86.457-96.476c41.881-9.45,88.885,21.828,94.573,65.131c1.261,9.6-0.044,19.201-3.772,28.08
		c-0.3,0.68-0.604,1.359-0.901,2.041c-2.592,5.963,6.051,11.255,8.888,5.195c0.373-0.796,0.721-1.595,1.058-2.394
		c9.428-21.272,20.858-41.559,35.884-59.426c15.443-18.363,33.833-37.098,55.24-48.325c37.671-19.757,89.404-18.59,115.518,18.837
		c28.815,41.297,13.257,95.406-8.476,136.016c-21.946,41.009-53.66,75.994-91.252,103.245
		c-37.839,27.43-80.625,47.381-124.845,62.134c-35.735,11.922-72.756,21.412-110.215,26.846
		C994.932,800.843,984.329,776.599,975.151,752.173z M1832.916,885.188c-1.906,0.446-3.811,0.893-5.716,1.339
		c12.411-15.479,24.821-30.958,37.232-46.438c1.958-2.442,4.119-4.816,5.917-7.38c0.297-0.423,0.534-0.847,0.721-1.272
		c0.682-1.273,0.896-2.799,0.521-4.148c-0.182-1.661-0.688-3.36-1.06-5.118c-2.976-14.041-5.952-28.083-8.927-42.124
		c-1.423-6.714-2.846-13.427-4.268-20.141c34.349,28.764,68.697,57.527,103.046,86.291c2.838,2.376,5.676,4.753,8.514,7.129
		C1923.568,863.947,1878.242,874.568,1832.916,885.188z"/>
</g>
</svg>
